<svg width="148" height="98" viewBox="0 0 148 98" fill="none" xmlns="http://www.w3.org/2000/svg">
<g clip-path="url(#clip0_406_119)">
<path d="M52.7626 6.23769C52.0792 5.55408 52.0791 4.44622 52.7623 3.76252C52.7624 3.76246 52.7625 3.7624 52.7625 3.76233C52.7626 3.76231 52.7626 3.76229 52.7626 3.76226C53.4462 3.07943 54.5542 3.07945 55.2379 3.76256L70.2352 18.7646L70.2353 18.7647C70.919 19.4483 70.919 20.5516 70.2353 21.2353L70.2353 21.2353L55.2376 36.2353C54.5539 36.9189 53.446 36.9189 52.7626 36.2353C52.0791 35.5516 52.0791 34.4483 52.7626 33.7646L52.7626 33.7646L65.9914 20.5302L66.5214 19.9999L65.9913 19.4697L52.7626 6.23771C52.7626 6.2377 52.7626 6.23769 52.7626 6.23769ZM94 33.25C94.9686 33.25 95.75 34.0314 95.75 35C95.75 35.9686 94.9686 36.75 94 36.75H71.5C70.5314 36.75 69.75 35.9686 69.75 35C69.75 34.0314 70.5314 33.25 71.5 33.25H94Z" stroke="#3294F8" stroke-width="1.5"/>
</g>
<path d="M14.4844 78.2695V85.7578C13.375 86.7734 11.1289 87.2812 7.74609 87.2812C7.08203 87.2812 6.49609 87.2539 5.98828 87.1992C5.48828 87.1445 5.02734 87.0742 4.60547 86.9883C4.19141 86.9023 3.83594 86.7578 3.53906 86.5547C3.24219 86.3438 2.98047 86.1328 2.75391 85.9219C2.52734 85.7109 2.34375 85.4062 2.20312 85.0078C2.0625 84.6016 1.94531 84.2109 1.85156 83.8359C1.76562 83.4609 1.69922 82.957 1.65234 82.3242C1.61328 81.6914 1.58594 81.0859 1.57031 80.5078C1.55469 79.9297 1.54688 79.1875 1.54688 78.2812C1.54688 77.5078 1.55078 76.8477 1.55859 76.3008C1.57422 75.7539 1.60156 75.1953 1.64062 74.625C1.6875 74.0547 1.74609 73.582 1.81641 73.207C1.89453 72.8242 1.99609 72.4414 2.12109 72.0586C2.25391 71.668 2.40625 71.3555 2.57812 71.1211C2.75 70.8789 2.96484 70.6406 3.22266 70.4062C3.48047 70.1719 3.76562 69.9922 4.07812 69.8672C4.39844 69.7422 4.76953 69.6289 5.19141 69.5273C5.61328 69.4258 6.07422 69.3594 6.57422 69.3281C7.07422 69.2891 7.64062 69.2695 8.27344 69.2695C8.3125 69.2695 8.37109 69.2695 8.44922 69.2695C8.99609 69.2695 9.41016 69.2734 9.69141 69.2812C9.97266 69.2891 10.3516 69.3203 10.8281 69.375C11.3125 69.4219 11.6836 69.5 11.9414 69.6094C12.1992 69.7109 12.4961 69.8672 12.832 70.0781C13.168 70.2812 13.418 70.5352 13.582 70.8398C13.7461 71.1367 13.8906 71.5156 14.0156 71.9766C14.1406 72.4375 14.2031 72.9688 14.2031 73.5703C14.2031 73.7109 14.1953 73.9062 14.1797 74.1562L12.082 74.5547L11.9531 72.2461C11.9375 71.7461 11.6523 71.4258 11.0977 71.2852C10.543 71.1367 9.49219 71.0625 7.94531 71.0625C6.89062 71.0625 6.09375 71.1289 5.55469 71.2617C5.01562 71.3867 4.64062 71.582 4.42969 71.8477C4.21875 72.1133 4.08984 72.5078 4.04297 73.0312C3.97266 74.6328 3.9375 76.2734 3.9375 77.9531C3.9375 79.6406 3.97266 81.2812 4.04297 82.875C4.08203 83.7188 4.14844 84.2656 4.24219 84.5156C4.39062 84.8984 4.73047 85.1562 5.26172 85.2891C5.76172 85.4141 6.63281 85.4766 7.875 85.4766C10.5469 85.4766 12.0273 85.2969 12.3164 84.9375C12.3086 84.1328 12.3047 82.5 12.3047 80.0391H9.35156L9.15234 78.2695H14.4844ZM20.4258 87H18.0469V69.5391H20.4258V87ZM33.8906 71.3438H29.332V87H26.9531V71.3438H22.4883V69.5391H33.8906V71.3438ZM48.4453 87H46.0664V78.9844H38.2617V87H35.8828V69.5391H38.2617V77.1328H46.0664V69.5391H48.4453V87ZM65.3555 69.5391V80.4727C65.3555 81.4102 65.3125 82.2148 65.2266 82.8867C65.1484 83.5586 65.0039 84.1562 64.793 84.6797C64.582 85.1953 64.3164 85.6172 63.9961 85.9453C63.6836 86.2656 63.2695 86.5312 62.7539 86.7422C62.2461 86.9453 61.6758 87.0859 61.043 87.1641C60.4102 87.2422 59.6445 87.2812 58.7461 87.2812C57.8789 87.2812 57.1406 87.2461 56.5312 87.1758C55.9219 87.1055 55.3594 86.9766 54.8438 86.7891C54.3281 86.5938 53.9102 86.3398 53.5898 86.0273C53.2773 85.707 53.0078 85.293 52.7812 84.7852C52.5547 84.2695 52.3945 83.6641 52.3008 82.9688C52.2148 82.2734 52.1719 81.4414 52.1719 80.4727V69.5391H54.5508V80.7773C54.5508 81.4258 54.5508 81.8945 54.5508 82.1836C54.5586 82.4727 54.582 82.8281 54.6211 83.25C54.6602 83.6641 54.7109 83.9492 54.7734 84.1055C54.8359 84.2539 54.9375 84.4414 55.0781 84.668C55.2266 84.8945 55.3906 85.0391 55.5703 85.1016C55.7578 85.1562 56.0117 85.2266 56.332 85.3125C56.6523 85.3984 56.9961 85.4492 57.3633 85.4648C57.7383 85.4727 58.2031 85.4766 58.7578 85.4766C59.4141 85.4766 59.9609 85.457 60.3984 85.418C60.8438 85.3789 61.2305 85.3008 61.5586 85.1836C61.8867 85.0664 62.1367 84.9336 62.3086 84.7852C62.4883 84.6289 62.6289 84.4023 62.7305 84.1055C62.8398 83.8086 62.9102 83.5 62.9414 83.1797C62.9727 82.8594 62.9883 82.4336 62.9883 81.9023L62.9766 69.5391H65.3555ZM81.3984 81.9727C81.3906 82.4648 81.3711 82.8984 81.3398 83.2734C81.3164 83.6406 81.2734 83.9883 81.2109 84.3164C81.1484 84.6445 81.082 84.9219 81.0117 85.1484C80.9414 85.375 80.8281 85.5898 80.6719 85.793C80.5234 85.9883 80.3789 86.1484 80.2383 86.2734C80.0977 86.3906 79.8945 86.5 79.6289 86.6016C79.3711 86.6953 79.1211 86.7656 78.8789 86.8125C78.6367 86.8594 78.3125 86.8984 77.9062 86.9297C77.5078 86.9609 77.1211 86.9805 76.7461 86.9883C76.3789 86.9961 75.9141 87 75.3516 87H69.0938V69.5391H75.7266C76.6094 69.5391 77.3398 69.5859 77.918 69.6797C78.5039 69.7656 79.0195 69.9258 79.4648 70.1602C79.918 70.3945 80.2461 70.7266 80.4492 71.1562C80.6523 71.5859 80.7578 72.1328 80.7656 72.7969L80.7773 74.0625C80.7773 74.5938 80.7578 75.0273 80.7188 75.3633C80.6797 75.6992 80.6094 76.0039 80.5078 76.2773C80.4141 76.5508 80.2695 76.7656 80.0742 76.9219C79.8789 77.0781 79.6406 77.2109 79.3594 77.3203C79.0859 77.4219 78.7305 77.5117 78.293 77.5898C78.8242 77.6445 79.2812 77.7617 79.6641 77.9414C80.0469 78.1211 80.3477 78.3359 80.5664 78.5859C80.793 78.8359 80.9688 79.1523 81.0938 79.5352C81.2188 79.918 81.3008 80.293 81.3398 80.6602C81.3789 81.0273 81.3984 81.4648 81.3984 81.9727ZM78.457 73.5586C78.457 73.543 78.457 73.5195 78.457 73.4883C78.457 73.1602 78.457 72.9297 78.457 72.7969C78.457 72.6562 78.4336 72.4883 78.3867 72.293C78.3477 72.0898 78.3047 71.957 78.2578 71.8945C78.2188 71.832 78.1211 71.75 77.9648 71.6484C77.8164 71.5391 77.668 71.4766 77.5195 71.4609C77.3711 71.4375 77.1367 71.4102 76.8164 71.3789C76.5039 71.3398 76.1914 71.3203 75.8789 71.3203C75.5664 71.3203 75.1406 71.3203 74.6016 71.3203H71.4492V76.9219H73.8047C74.8281 76.9219 75.6562 76.8945 76.2891 76.8398C76.9219 76.7773 77.3906 76.6758 77.6953 76.5352C78.0078 76.3867 78.2109 76.2305 78.3047 76.0664C78.4062 75.9023 78.457 75.6836 78.457 75.4102V73.5586ZM79.0781 81.4102C79.0625 80.4805 79.0273 79.8945 78.9727 79.6523C78.8633 79.2227 78.5938 78.9297 78.1641 78.7734C77.6328 78.5703 76.4453 78.4648 74.6016 78.457C74.4766 78.457 74.3398 78.457 74.1914 78.457H71.4492V85.2305H75.9258C76.832 85.2305 77.5156 85.1562 77.9766 85.0078C78.4375 84.8516 78.7422 84.6211 78.8906 84.3164C79.0391 84.0117 79.1094 83.5625 79.1016 82.9688L79.0781 81.4102ZM101.355 74.3438C101.355 75.8359 101.074 76.9453 100.512 77.6719C99.9492 78.3906 99.1641 78.832 98.1562 78.9961C99.6562 79.3008 100.547 80.2539 100.828 81.8555L101.73 87H99.1875C99.125 86.6406 99.0508 86.1211 98.9648 85.4414C98.8867 84.7539 98.8125 84.1758 98.7422 83.707C98.6719 83.2305 98.5781 82.7266 98.4609 82.1953C98.3438 81.6641 98.1875 81.2188 97.9922 80.8594C97.8047 80.5 97.5781 80.2344 97.3125 80.0625C96.8906 79.8828 96.1992 79.793 95.2383 79.793H91.6172V87H89.25V69.5391H94.582C95.1445 69.5391 95.6211 69.5469 96.0117 69.5625C96.4102 69.5703 96.8281 69.5938 97.2656 69.6328C97.7031 69.6719 98.0703 69.7266 98.3672 69.7969C98.6641 69.8672 98.9648 69.9609 99.2695 70.0781C99.582 70.1953 99.8359 70.3398 100.031 70.5117C100.234 70.6836 100.426 70.8906 100.605 71.1328C100.785 71.3672 100.926 71.6406 101.027 71.9531C101.129 72.2578 101.207 72.6094 101.262 73.0078C101.324 73.4062 101.355 73.8516 101.355 74.3438ZM99.0117 75.2695V73.6406C99.0117 73.3438 99.0039 73.1133 98.9883 72.9492C98.9805 72.7773 98.9531 72.5977 98.9062 72.4102C98.8594 72.2148 98.7852 72.0703 98.6836 71.9766C98.5898 71.875 98.4609 71.7773 98.2969 71.6836C98.1406 71.582 97.9336 71.5117 97.6758 71.4727C97.4258 71.4336 97.1289 71.4023 96.7852 71.3789C96.4492 71.3477 96.043 71.332 95.5664 71.332H91.6172V77.9297H95.707C96.3086 77.9297 96.8047 77.8984 97.1953 77.8359C97.5859 77.7734 97.9023 77.6875 98.1445 77.5781C98.3945 77.4609 98.582 77.2891 98.707 77.0625C98.832 76.8281 98.9141 76.582 98.9531 76.3242C98.9922 76.0586 99.0117 75.707 99.0117 75.2695ZM114.68 87H104.789V69.5391H114.574L114.809 71.3438H107.168V76.957H113.695V78.8555H107.168V85.207H114.914L114.68 87ZM129.656 75.2344C129.656 75.9453 129.617 76.5781 129.539 77.1328C129.461 77.6875 129.355 78.1641 129.223 78.5625C129.098 78.9531 128.922 79.2891 128.695 79.5703C128.477 79.8516 128.242 80.0781 127.992 80.25C127.75 80.4219 127.453 80.5586 127.102 80.6602C126.758 80.7539 126.414 80.8164 126.07 80.8477C125.734 80.8789 125.34 80.8945 124.887 80.8945H120.234V87H117.867V69.5391H124.195C124.922 69.5391 125.535 69.5703 126.035 69.6328C126.543 69.6875 127.012 69.793 127.441 69.9492C127.871 70.1055 128.215 70.3164 128.473 70.582C128.73 70.8477 128.953 71.1953 129.141 71.625C129.328 72.0547 129.457 72.5625 129.527 73.1484C129.605 73.7266 129.648 74.4219 129.656 75.2344ZM127.289 75.1055C127.281 74.543 127.266 74.0859 127.242 73.7344C127.219 73.3828 127.172 73.0508 127.102 72.7383C127.039 72.4258 126.953 72.1875 126.844 72.0234C126.742 71.8594 126.598 71.7188 126.41 71.6016C126.23 71.4766 126.016 71.3945 125.766 71.3555C125.523 71.3164 125.219 71.2969 124.852 71.2969H120.234V79.125H124.371C124.98 79.125 125.477 79.0742 125.859 78.9727C126.242 78.8711 126.539 78.7031 126.75 78.4688C126.969 78.2266 127.113 77.9453 127.184 77.625C127.262 77.3047 127.301 76.8906 127.301 76.3828C127.301 76.2578 127.297 76.0547 127.289 75.7734C127.289 75.4922 127.289 75.2695 127.289 75.1055ZM139.078 87.2812C138.398 87.2812 137.793 87.2656 137.262 87.2344C136.738 87.2031 136.254 87.125 135.809 87C135.363 86.8828 134.98 86.7734 134.66 86.6719C134.348 86.5703 134.062 86.3789 133.805 86.0977C133.555 85.8086 133.348 85.5625 133.184 85.3594C133.02 85.1484 132.879 84.8047 132.762 84.3281C132.645 83.8438 132.559 83.4336 132.504 83.0977C132.449 82.7539 132.402 82.2266 132.363 81.5156C132.332 80.8047 132.312 80.1953 132.305 79.6875C132.305 79.1797 132.305 78.4453 132.305 77.4844C132.305 76.3281 132.336 75.3672 132.398 74.6016C132.461 73.8359 132.582 73.125 132.762 72.4688C132.949 71.8125 133.191 71.2969 133.488 70.9219C133.793 70.5469 134.203 70.2266 134.719 69.9609C135.242 69.6875 135.848 69.5039 136.535 69.4102C137.23 69.3086 138.078 69.2578 139.078 69.2578C140.023 69.2578 140.832 69.3047 141.504 69.3984C142.176 69.4922 142.77 69.6602 143.285 69.9023C143.809 70.1367 144.227 70.4336 144.539 70.793C144.859 71.1445 145.121 71.6094 145.324 72.1875C145.527 72.7656 145.664 73.4141 145.734 74.1328C145.812 74.8438 145.852 75.7109 145.852 76.7344C145.852 79.625 145.809 81.5273 145.723 82.4414C145.574 84.0039 145.215 85.1211 144.645 85.793C144.043 86.5117 143.02 86.9648 141.574 87.1523C140.887 87.2383 140.055 87.2812 139.078 87.2812ZM140.754 71.1094C140.309 71.0781 139.75 71.0625 139.078 71.0625C138.406 71.0625 137.848 71.0781 137.402 71.1094C136.957 71.1406 136.566 71.207 136.23 71.3086C135.902 71.4102 135.648 71.5234 135.469 71.6484C135.289 71.7734 135.141 71.9688 135.023 72.2344C134.914 72.4922 134.84 72.7578 134.801 73.0312C134.77 73.3047 134.746 73.6758 134.73 74.1445C134.707 75.5898 134.695 77.043 134.695 78.5039C134.695 80.707 134.754 82.2148 134.871 83.0273C135.059 84.2461 135.414 84.9492 135.938 85.1367C136.328 85.3633 137.375 85.4766 139.078 85.4766C140.781 85.4766 141.828 85.3633 142.219 85.1367C142.367 85.082 142.5 84.9922 142.617 84.8672C142.742 84.7422 142.844 84.5742 142.922 84.3633C143.008 84.1523 143.082 83.9414 143.145 83.7305C143.207 83.5117 143.258 83.2344 143.297 82.8984C143.336 82.5625 143.367 82.2617 143.391 81.9961C143.414 81.7227 143.43 81.3789 143.438 80.9648C143.445 80.543 143.449 80.1953 143.449 79.9219C143.457 79.6484 143.461 79.2852 143.461 78.832C143.461 77.2539 143.449 75.6914 143.426 74.1445C143.41 73.6758 143.383 73.3047 143.344 73.0312C143.312 72.7578 143.238 72.4922 143.121 72.2344C143.012 71.9688 142.867 71.7734 142.688 71.6484C142.508 71.5234 142.25 71.4102 141.914 71.3086C141.586 71.207 141.199 71.1406 140.754 71.1094Z" fill="#3294F8"/>
<defs>
<clipPath id="clip0_406_119">
<rect width="45" height="40" fill="white" transform="translate(51.5)"/>
</clipPath>
</defs>
</svg>
